# Blender v2.80 (sub 75) OBJ File: ''
# www.blender.org
mtllib untitled.mtl
o Cylinder
v 0.000000 0.000000 -2.099662
v 0.000000 -0.000000 2.114072
v 0.000000 1.000000 -1.000000
v 0.000000 1.000000 1.000000
v 0.866025 0.500000 -1.000000
v 0.866025 0.500000 1.000000
v 0.866025 -0.500000 -1.000000
v 0.866025 -0.500000 1.000000
v -0.000000 -1.000000 -1.000000
v -0.000000 -1.000000 1.000000
v -0.866025 -0.500000 -1.000000
v -0.866025 -0.500000 1.000000
v -0.866025 0.500000 -1.000000
v -0.866025 0.500000 1.000000
vt 0.750000 0.250000
vt 0.750000 0.490000
vt 0.957846 0.370000
vt 0.250000 0.250000
vt 0.457846 0.370000
vt 0.250000 0.490000
vt 1.000000 0.500000
vt 1.000000 1.000000
vt 0.833333 1.000000
vt 0.833333 0.500000
vt 0.957846 0.130000
vt 0.457846 0.130000
vt 0.666667 1.000000
vt 0.666667 0.500000
vt 0.750000 0.010000
vt 0.250000 0.010000
vt 0.500000 1.000000
vt 0.500000 0.500000
vt 0.542154 0.130000
vt 0.042154 0.130000
vt 0.333333 1.000000
vt 0.333333 0.500000
vt 0.542154 0.370000
vt 0.042154 0.370000
vt 0.166667 1.000000
vt 0.166667 0.500000
vt -0.000000 1.000000
vt -0.000000 0.500000
vn 0.3928 0.6804 -0.6187
vn 0.3948 0.6837 0.6137
vn 0.5000 0.8660 0.0000
vn 0.7856 -0.0000 -0.6187
vn 0.7895 -0.0000 0.6137
vn 1.0000 -0.0000 -0.0000
vn 0.3928 -0.6804 -0.6187
vn 0.3948 -0.6837 0.6137
vn 0.5000 -0.8660 -0.0000
vn -0.3928 -0.6804 -0.6187
vn -0.3948 -0.6837 0.6137
vn -0.5000 -0.8660 -0.0000
vn -0.7856 0.0000 -0.6187
vn -0.7895 0.0000 0.6137
vn -1.0000 0.0000 0.0000
vn -0.3928 0.6804 -0.6187
vn -0.3948 0.6837 0.6137
vn -0.5000 0.8660 0.0000
usemtl None
s off
f 1/1/1 3/2/1 5/3/1
f 2/4/2 6/5/2 4/6/2
f 3/7/3 4/8/3 6/9/3 5/10/3
f 1/1/4 5/3/4 7/11/4
f 2/4/5 8/12/5 6/5/5
f 5/10/6 6/9/6 8/13/6 7/14/6
f 1/1/7 7/11/7 9/15/7
f 2/4/8 10/16/8 8/12/8
f 7/14/9 8/13/9 10/17/9 9/18/9
f 1/1/10 9/15/10 11/19/10
f 2/4/11 12/20/11 10/16/11
f 9/18/12 10/17/12 12/21/12 11/22/12
f 1/1/13 11/19/13 13/23/13
f 2/4/14 14/24/14 12/20/14
f 11/22/15 12/21/15 14/25/15 13/26/15
f 1/1/16 13/23/16 3/2/16
f 2/4/17 4/6/17 14/24/17
f 13/26/18 14/25/18 4/27/18 3/28/18
